<?xml version="1.0"?>
<svg xmlns="http://www.w3.org/2000/svg" id="Layer_4" height="auto" viewBox="0 0 64 64" width="auto" data-name="Layer 4"><g><path d="m8 2h8.446l3.754 6h-6.2a1 1 0 0 0 -.832.445l-5.036 7.555h39.9l-4.158-7.485a1 1 0 0 0 -.874-.515h-10.2l3.75-6h8.45a1 1 0 0 0 0-2h-9a1 1 0 0 0 -.848.47l-4.707 7.53h-7.89l-4.707-7.53a1 1 0 0 0 -.848-.47h-9a1 1 0 0 0 0 2z" data-original="#000000" class="active-path" data-old_color="#000000" fill="#FEA502"/><path d="m3 2h2a1 1 0 0 0 0-2h-2a1 1 0 0 0 0 2z" data-original="#000000" class="active-path" data-old_color="#000000" fill="#FEA502"/><path d="m48 2h2a1 1 0 0 0 0-2h-2a1 1 0 0 0 0 2z" data-original="#000000" class="active-path" data-old_color="#000000" fill="#FEA502"/><path d="m42.275 44.6a5.111 5.111 0 0 0 .725-2.6c0-2.934-2.631-5.494-6.4-6.227a11.121 11.121 0 0 0 -2.1-.208c-3.53 0-6.952 4.255-8.328 6.429 1.018 1.583 4.458 6.44 8.328 6.44a11.135 11.135 0 0 0 2.1-.208 8.285 8.285 0 0 0 5.675-3.626z" data-original="#000000" class="active-path" data-old_color="#000000" fill="#FEA502"/><path d="m52.435 51.5c0 5.761-7.614 10.183-7.938 10.368a1 1 0 0 1 -.993 0c-.315-.18-7.5-4.369-7.9-9.9-3.83 3.959-12.624 12.032-20.604 12.032h25a13.015 13.015 0 0 0 13-13v-.59c-.207-.008-.412-.012-.622-.031.034.377.057.752.057 1.121z" data-original="#000000" class="active-path" data-old_color="#000000" fill="#FEA502"/><path d="m34.309 50.419c-5.666-.167-9.994-7.6-10.178-7.922a1 1 0 0 1 0-.994c.186-.323 4.608-7.937 10.368-7.937.369 0 .744.022 1.122.056-.034-.377-.056-.752-.056-1.121 0-5.761 7.614-10.183 7.938-10.368a1 1 0 0 1 .993 0c.324.186 7.938 4.607 7.938 10.368 0 .369-.022.744-.056 1.121.209-.019.415-.023.622-.031v-15.591h-20v9a1 1 0 0 1 -2 0v-9h-7v5a1 1 0 0 1 -2 0v-5h-7v9a1 1 0 0 1 -2 0v-9h-13v33c0 7.168 6.311 13 14.067 13h.933v-2c7.257 0 15.74-7.892 19.309-11.581zm-25.309 4.581h-1a1 1 0 0 1 0-2h1a1 1 0 0 1 0 2zm4 0h-1a1 1 0 0 1 0-2h1a1 1 0 0 1 0 2zm1-22a1 1 0 0 1 -1-1v-1.875a1 1 0 0 1 2 0v1.875a1 1 0 0 1 -1 1z" data-original="#000000" class="active-path" data-old_color="#000000" fill="#FEA502"/><path d="m44.009 24c-1.583 1.018-6.44 4.457-6.44 8.328a10.8 10.8 0 0 0 .1 1.463 10.07 10.07 0 0 1 6.331 4.432 10.07 10.07 0 0 1 6.332-4.432 10.8 10.8 0 0 0 .1-1.463c.006-3.528-4.249-6.952-6.423-8.328z" data-original="#000000" class="active-path" data-old_color="#000000" fill="#FEA502"/><path d="m53.4 35.495a11.13 11.13 0 0 0 -2.1.208c-3.37.655-5.831 2.772-6.312 5.313 3.245.518 5.962 3.325 6.951 7.246a10.729 10.729 0 0 0 1.463.1c3.53 0 6.952-4.255 8.328-6.429-1.02-1.581-4.46-6.438-8.33-6.438z" data-original="#000000" class="active-path" data-old_color="#000000" fill="#FEA502"/><path d="m45.011 42.986c-.517 3.245-3.326 5.963-7.246 6.951a10.8 10.8 0 0 0 -.1 1.463c0 3.53 4.255 6.952 6.429 8.328 1.583-1.018 6.44-4.457 6.44-8.328a11.049 11.049 0 0 0 -.208-2.1c-.658-3.371-2.775-5.832-5.315-6.314z" data-original="#000000" class="active-path" data-old_color="#000000" fill="#FEA502"/></g> </svg>
