<?xml version="1.0"?>
<svg xmlns="http://www.w3.org/2000/svg" id="Capa_1" enable-background="new 0 0 511.958 511.958" height="auto" viewBox="0 0 511.958 511.958" width="auto"><g><g><path d="m231.629 188.155h48.701v41.404h-48.701z" data-original="#000000" class="active-path" data-old_color="#000000" fill="#FFA500"/><path d="m231.629 139.537v18.619h48.701v-18.619c0-13.427-10.924-24.351-24.351-24.351s-24.35 10.924-24.35 24.351z" data-original="#000000" class="active-path" data-old_color="#000000" fill="#FFA500"/><path d="m511.938 442h-100.625v-30h100.625v-62.298h-104.408c-47.773 0-92.686 18.604-126.466 52.384-19.492 19.492-42.289 34.724-67.756 45.273s-52.358 15.898-79.923 15.898h-133.364v48.702h511.917zm-130.907 0h-30.282v-30h30.282z" data-original="#000000" class="active-path" data-old_color="#000000" fill="#FFA500"/><path d="m231.629 259.559h48.701v41.404h-48.701z" data-original="#000000" class="active-path" data-old_color="#000000" fill="#FFA500"/><path d="m310.33 139.537v35.407l81.056 81.056c25.948-25.948 16.266-70.258-17.034-103.559-6.661-6.661-13.767-12.359-21.074-17.034h88.06c0-36.696-38.178-61.182-85.272-61.182-9.421 0-18.474.995-26.947 2.857l62.268-62.268c-25.948-25.948-70.258-16.266-103.559 17.034-16.301 16.301-26.94 35.24-30.512 53.372 29.352.714 53.014 24.796 53.014 54.317z" data-original="#000000" class="active-path" data-old_color="#000000" fill="#FFA500"/><path d="m137.607 152.441c-33.301 33.301-42.983 77.61-17.034 103.559l81.056-81.056v-35.407c0-29.521 23.662-53.602 53.014-54.317-3.572-18.132-14.211-37.07-30.512-53.372-33.301-33.3-77.611-42.982-103.559-17.034l62.268 62.268c-8.473-1.861-17.526-2.857-26.947-2.857-47.095 0-85.272 24.485-85.272 61.182h88.06c-7.307 4.675-14.413 10.373-21.074 17.034z" data-original="#000000" class="active-path" data-old_color="#000000" fill="#FFA500"/><path d="m280.33 362.903v-31.94h-48.701v72.951c10.051-6.634 19.509-14.328 28.222-23.04 6.467-6.469 13.306-12.457 20.479-17.971z" data-original="#000000" class="active-path" data-old_color="#000000" fill="#FFA500"/><path d="m104.428 349.702h-104.407v83.555h133.363c23.799 0 46.887-4.62 68.245-13.43v-41.469c-28.691-18.65-62.176-28.656-97.201-28.656z" data-original="#000000" class="active-path" data-old_color="#000000" fill="#FFA500"/></g></g> </svg>
