<?xml version="1.0"?>
<svg xmlns="http://www.w3.org/2000/svg" xmlns:xlink="http://www.w3.org/1999/xlink" version="1.1" id="Capa_1" x="0px" y="0px" viewBox="0 0 512 512" style="enable-background:new 0 0 512 512;" xml:space="preserve" width="auto" height="auto"><g><g>
	<g>
		<path d="M407,122h-20.524c37.632,29.595,64.94,71.658,75.547,120H497c8.291,0,15-6.709,15-15C512,169.109,464.891,122,407,122z" data-original="#000000" class="active-path" data-old_color="#000000" fill="#FFA500"/>
	</g>
</g><g>
	<g>
		<path d="M256,0c-41.353,0-75,35.647-75,77v14.086C204.331,82.123,229.552,77,256,77s52.669,5.123,76,14.086V77    C332,35.647,297.353,0,256,0z" data-original="#000000" class="active-path" data-old_color="#000000" fill="#FFA500"/>
	</g>
</g><g>
	<g>
		<path d="M106,122C48.109,122,0,169.109,0,227c0,8.291,6.709,15,15,15h35.977c10.607-48.342,37.915-90.405,75.547-120H106z" data-original="#000000" class="active-path" data-old_color="#000000" fill="#FFA500"/>
	</g>
</g><g>
	<g>
		<path d="M82.103,404.587C68.753,422.445,61,443.942,61,467v30c0,8.291,6.709,15,15,15h30c27.59,0,53.741-11.016,73.112-29.778    C139.512,466.568,105.696,439.366,82.103,404.587z" data-original="#000000" class="active-path" data-old_color="#000000" fill="#FFA500"/>
	</g>
</g><g>
	<g>
		<path d="M430.897,404.587c-23.593,34.781-57.407,61.981-97.009,77.635C353.259,500.984,379.41,512,407,512h30    c8.291,0,15-6.709,15-15v-30C452,443.942,444.247,422.447,430.897,404.587z" data-original="#000000" class="active-path" data-old_color="#000000" fill="#FFA500"/>
	</g>
</g><g>
	<g>
		<path d="M164.022,302H76.758c4.404,53.247,31.97,99.798,72.616,129.783l49.669-77.261L164.022,302z" data-original="#000000" class="active-path" data-old_color="#000000" fill="#FFA500"/>
	</g>
</g><g>
	<g>
		<path d="M348.978,302l-35.021,52.524l49.666,77.261c40.647-29.983,68.215-76.536,72.619-129.785H348.978z" data-original="#000000" class="active-path" data-old_color="#000000" fill="#FFA500"/>
	</g>
</g><g>
	<g>
		<path d="M143.585,146.545C106.09,176.595,80.953,221.294,76.758,272h87.264l30.657-45.98L143.585,146.545z" data-original="#000000" class="active-path" data-old_color="#000000" fill="#FFA500"/>
	</g>
</g><g>
	<g>
		<path d="M369.41,146.543l-51.09,79.477L348.978,272h87.264C432.047,221.293,406.908,176.591,369.41,146.543z" data-original="#000000" class="active-path" data-old_color="#000000" fill="#FFA500"/>
	</g>
</g><g>
	<g>
		<path d="M338.094,447.541L283.105,362h-53.211l-54.992,85.54c20.202,10.226,42.61,16.588,66.279,18.565    c-0.02,0.313-0.181,0.577-0.181,0.895v30c0,8.291,6.709,15,15,15s15-6.709,15-15v-30c0-0.319-0.161-0.582-0.181-0.895    C294.487,464.127,317.894,457.766,338.094,447.541z" data-original="#000000" class="active-path" data-old_color="#000000" fill="#FFA500"/>
	</g>
</g><g>
	<g>
		<polygon points="292.918,242 220.082,242 190.082,287 220.082,332 292.918,332 322.918,287   " data-original="#000000" class="active-path" data-old_color="#000000" fill="#FFA500"/>
	</g>
</g><g>
	<g>
		<path d="M256,107c-31.793,0-61.611,8.315-87.534,22.778L221.325,212h70.349l52.855-82.224C318.609,115.313,287.791,107,256,107z" data-original="#000000" class="active-path" data-old_color="#000000" fill="#FFA500"/>
	</g>
</g></g> </svg>
